# xmcd
#
# Track frame offsets:
# 150
# 16684
# 30822
# 48255
# 65766
# 81670
# 98768
# 114143
# 126641
# 141696
# 158314
# 173275
# 188805
# 204271
# 220338
# 236354
# 252175
# 267428
# 288083
#
# Disc length: 4059 seconds
#
#
# Revision: 1
# Processed by: cddbd v1.5.2PL0 Copyright (c) Steve Scherf et al.
# Submitted via: FreeRIP 2.951 
#
DISCID=fc0fd913
DTITLE=Gatinha Manhosa - Dois Em Um
DYEAR=2007
DGENRE=Forro
TTITLE0=Pra Ela
TTITLE1=Mundo Natural
TTITLE2=Dois Em Um
TTITLE3=Um Anjo
TTITLE4=Noticia Urgente
TTITLE5=Entre O Bem E O Mal
TTITLE6=Fica Pra Depois
TTITLE7=Quem Dira
TTITLE8=Esse Meu Coracao
TTITLE9=Universo De Amor
TTITLE10=A Mina E O Diamante
TTITLE11=Voce Quer Casar Comigo
TTITLE12=Lembrancas
TTITLE13=Cilada
TTITLE14=O Celular - Acustico
TTITLE15=Esse Meu Coracao - Acustico
TTITLE16=Alucinacao - Acustico
TTITLE17=Sempre Off Pra Mim - Acustico
TTITLE18=Esse Orgulho - Acustico
EXTD=
EXTT0=
EXTT1=
EXTT2=
EXTT3=
EXTT4=
EXTT5=
EXTT6=
EXTT7=
EXTT8=
EXTT9=
EXTT10=
EXTT11=
EXTT12=
EXTT13=
EXTT14=
EXTT15=
EXTT16=
EXTT17=
EXTT18=
PLAYORDER=
